<svg width="640" xmlns="http://www.w3.org/2000/svg" height="624" fill="none"><g data-testid="Group"><g class="fills"><rect rx="0" ry="0" width="640" height="624" class="frame-background"/></g><g data-testid="Group" class="frame-children"><ellipse cx="320" cy="312" rx="320" ry="312" style="fill: rgb(32, 57, 133); fill-opacity: 1;" class="fills" data-testid="Ellipse"/><g data-testid="3658724-vectormaker-co" style="fill: rgb(0, 0, 0);"><path d="M513.225 140.948c-10.335 6.479-3.895 22.901 8.098 20.651 6.516-1.222 10.811-8.987 8.279-14.967-2.932-6.925-10.312-9.486-16.377-5.684Zm-119.462 8.563c-7.562 4.253-7.412 16.034.254 19.998 1.641.848 2.983 1.981 2.983 2.517 0 1.416 3.759 1.195 4.7-.276.44-.687 1.7-1.739 2.8-2.336 1.1-.597 2.9-2.493 4-4.212 1.215-1.899 2.857-3.14 4.185-3.163 3.498-.062 7.315-1.865 7.315-3.455 0-2.098-1.917-2.998-5.823-2.735-2.8.188-3.95-.406-6.538-3.381-3.72-4.279-9.381-5.485-13.876-2.957Zm98.389.374c-2.819 1.786-.847 4.599 3.443 4.915 4.831.354 7.503-1.772 5.405-4.3-1.349-1.625-6.671-1.995-8.848-.615Zm-21.111 2.565c-1.853 2.233.365 4.554 4.331 4.535 4.044-.02 5.914-1.253 5.468-3.605-.478-2.515-7.899-3.219-9.799-.93Zm-17.852.264c-5.929 1.132-2.986 6.33 3.138 5.542 4.159-.536 5.609-2.423 3.662-4.769-1.228-1.48-2.4-1.614-6.8-.773Zm-22.805 2.728c-1.24 3.231.382 4.689 4.857 4.366 3.794-.274 4.259-.581 4.259-2.808 0-3.086-8.005-4.454-9.116-1.558Zm-39.409 29.123c-1.787 4.702-1.255 7.435 1.447 7.435 2.603 0 5.341-5.568 4.201-8.541-.936-2.438-4.571-1.726-5.648 1.106Zm-5.865 17.803c-2.175 2.621-2.595 8.509-.66 9.251 2.527.97 4.789-1.899 4.928-6.25.133-4.149-2.045-5.681-4.268-3.001Zm-6.457 19.122c-3.602 3.601-2.981 10.112.891 9.354 2.703-.529 4.778-7.379 2.827-9.33-1.859-1.859-1.883-1.86-3.718-.024Zm-7.605 20.883c-2.021 5.316-1.629 7.627 1.292 7.627 2.503 0 5.641-6.604 4.226-8.893-1.223-1.979-4.577-1.209-5.518 1.266ZM192 248.709c-2.844 1.046-4.933 3.548-6.594 7.898-1.664 4.357-1.662 4.368 1.096 7.984 4.061 5.325 8.719 7.018 13.808 5.019 3.642-1.43 4.204-1.42 6.828.131 2.7 1.594 2.959 1.589 4.611-.089 1.67-1.696 1.613-1.898-1.247-4.38-1.768-1.535-2.868-3.367-2.682-4.467 1.34-7.907-7.932-14.996-15.82-12.096ZM118.4 260.4c-8.522 8.522-.28 22.356 11.084 18.605C141.356 275.087 138.492 257 126 257c-3.443 0-4.813.613-7.6 3.4Zm49.6-.449c-2.92.458-3.5.963-3.5 3.049 0 2.297.352 2.492 4.344 2.407 4.346-.094 6.406-1.592 5.486-3.989-.669-1.745-2.241-2.109-6.33-1.467Zm197.11.417c-2.175 2.621-2.595 8.509-.66 9.251 2.527.97 4.789-1.899 4.928-6.25.133-4.149-2.045-5.681-4.268-3.001Zm-218.775 2.306c-2.798.572-3.913 3.43-1.909 4.895 2.834 2.073 9.074.295 9.074-2.586 0-2.594-2.241-3.316-7.165-2.309Zm209.165 9.271c-5.61 2.296-8.152 10.45-4.948 15.873 5.046 8.543 16.964 7.109 20.345-2.448 3.166-8.953-6.254-17.167-15.397-13.425ZM220 276.343c0 1.634 1.019 2.891 3.369 4.157 5.933 3.195 9.152-.372 3.996-4.427-3.697-2.909-7.365-2.774-7.365.27Zm17.667 9.324c-1.422 1.422-.556 4.175 1.798 5.718 5.754 3.77 10.191.151 4.953-4.04-2.896-2.318-5.472-2.958-6.751-1.678Zm17.058 10.942c-1.399 1.398-.705 4.331 1.275 5.391 1.534.821 2 2.094 2 5.458 0 4.513 4.272 10.542 7.47 10.542.724 0 1.575.675 1.892 1.5.808 2.107 3.371 1.867 4.602-.432.569-1.063 1.939-2.22 3.046-2.571 1.107-.351 2.682-1.934 3.501-3.518 4.356-8.425-1.398-17.713-10.262-16.565-6.796.88-8.492.902-10.774.144-1.114-.371-2.352-.348-2.75.051Zm94.829 4.916c-1.712 4.096-1.135 6.475 1.569 6.475 2.24 0 5.48-5.987 4.55-8.409-1.123-2.927-4.539-1.848-6.119 1.934Zm-7.568 19.016c-2.303 6.978 2.586 9.502 5.288 2.73 1.794-4.5 1.285-6.271-1.803-6.271-1.765 0-2.594.842-3.485 3.541Zm92.402 7.439c-6.043 2.442-8.48 12.091-4.372 17.313 6.679 8.491 19.984 3.812 19.984-7.028 0-8.181-7.914-13.395-15.612-10.285Zm-102.625 2.585c-3.169 1.719-5.763 6.192-5.763 9.935 0 9.857 12.354 14.874 19.364 7.864 9.099-9.1-2.253-23.956-13.601-17.799Zm-66.652 4.329c-6.465 6.166-7.153 11.71-2.159 17.398 1.929 2.197 2.771 4.052 2.43 5.355-.628 2.402 1.734 4.629 3.991 3.763.895-.343 1.627-1.467 1.627-2.497 0-1.172 1.47-2.622 3.934-3.879 7.884-4.022 9.795-12.712 3.96-18.005-3.936-3.57-6.304-5.546-7.628-6.365-.574-.355-3.344 1.549-6.155 4.23Zm149.889 9.4c-4.134 2.092-3.309 5.232 1.336 5.084 4.275-.135 7.255-2.395 6.332-4.8-.726-1.894-4.23-2.023-7.668-.284Zm-18.75 7.197c-3.462 1.505-4.144 3.522-1.837 5.436 2.8 2.324 10.229-2.09 8.983-5.337-.743-1.937-2.85-1.966-7.146-.099Zm-57.528 5.121c-.383.383-.42 2.427-.081 4.542.412 2.576.237 3.846-.528 3.846-3.844 0-6.077 9.167-3.536 14.522 4.678 9.857 19.278 7.308 21.061-3.677.506-3.121 1.024-3.607 4.964-4.661 5.23-1.399 6.736-6.184 1.945-6.184-2.83 0-7.547 1.947-7.547 3.115 0 .437-1.086-.292-2.414-1.62-1.328-1.327-3.522-2.692-4.877-3.032-1.665-.418-2.758-1.648-3.37-3.791-.869-3.045-3.953-4.725-5.617-3.06Zm38.528 1.972c-6.252 2.735-3.329 7.904 3.018 5.337 4.021-1.627 4.861-2.812 3.627-5.117-1.13-2.111-2.236-2.148-6.645-.22Zm-114.721 14.601c-1.159 4.956-.979 7.064.693 8.151 2.531 1.644 4.082-.41 4.189-5.547.105-5.058-3.818-7.151-4.882-2.604Zm56.645 6.338c-4.265 1.852-4.032 4.842.411 5.277 4.262.418 8.415-2.89 6.51-5.185-1.62-1.952-2.608-1.965-6.921-.092ZM88.5 381.945c-7.499 3.07-9.173 13.256-3.114 18.948 4.858 4.563 14.226 3.248 16.779-2.356.593-1.302 1.924-2.589 2.957-2.859 1.953-.511 2.706-4.678.844-4.678-.568 0-1.972-1.591-3.12-3.537-3.238-5.488-9.002-7.705-14.346-5.518Zm211.75 3.546c-3.416 1.485-4.517 5.085-1.867 6.103 2.392.917 8.617-2.287 8.617-4.436 0-1.497-2.051-3.417-3.332-3.119-.092.022-1.631.675-3.418 1.452Zm-45.936 6.459c-1.753 1.069-3.681 2.867-4.285 3.996-.859 1.604-2.084 2.054-5.596 2.054-3.249 0-4.671.456-5.127 1.645-.856 2.231 2.257 4.355 6.385 4.355 1.82 0 3.309.415 3.309.923 0 2.273 5.353 7.053 8.577 7.657 12.805 2.403 18.962-15.113 7.412-21.086-3.875-2.003-6.85-1.876-10.675.456Zm-136.93.492c-1.24 3.231.382 4.689 4.857 4.366 3.794-.274 4.259-.581 4.259-2.808 0-3.086-8.005-4.454-9.116-1.558ZM280 392.271c-2.817 1.451-3.367 5.035-.848 5.52 2.988.575 9.035-2.58 8.666-4.522-.419-2.213-4.459-2.729-7.818-.998ZM137.362 393.5c-1.185 3.087.429 4.5 5.138 4.5 4.931 0 6.732-1.811 4.489-4.513-1.658-1.998-8.859-1.988-9.627.013Zm20.72 1.347c-1.441 2.692.535 4.153 5.618 4.153 3.869 0 4.3-.24 4.3-2.393 0-3.888-8.018-5.311-9.918-1.76Zm21.07.038c-2.512 1.592-.862 4.578 2.859 5.173 4.022.644 6.989-.468 6.989-2.618 0-2.581-6.958-4.387-9.848-2.555Zm20.455 1.413c-3.643 2.664 3.064 6.917 7.951 5.041 1.769-.679 1.913-4.257.192-4.787-4.164-1.283-6.631-1.36-8.143-.254Zm150.06-.631c-.367.366-.667 1.872-.667 3.345s-.891 3.485-1.98 4.47c-4.566 4.132-2.955 13.949 2.774 16.912 1.624.839 3.192 2.444 3.485 3.566.764 2.921 4.521 2.683 5.279-.335.328-1.306 1.69-2.872 3.027-3.482 8.215-3.743 5.864-18.308-3.328-20.615-1.467-.368-3.276-1.537-4.019-2.599-1.363-1.945-3.342-2.492-4.571-1.262Zm-130.361 2.978c-1.328 3.46 7.034 6.06 9.589 2.982.627-.756.859-2.106.515-3-.885-2.306-9.218-2.291-10.104.018Zm134.403 37.979c-2.637 2.637.671 10.935 3.87 9.707 2.506-.961 1.535-9.743-1.12-10.123-1.123-.161-2.36.027-2.75.416Zm.693 20.771c-1.193 3.108.058 9.081 1.978 9.445 2.338.444 3.585-1.42 3.605-5.39.023-4.551-4.212-7.627-5.583-4.055Zm-.075 12.326c-5.248.961-9.066 7.527-7.922 13.626 2.021 10.772 18.476 11.458 21.638.903 2.51-8.375-4.835-16.154-13.716-14.529Zm-15.644 22.314c-2.921 2.297-3.549 5.695-1.218 6.59 2.329.894 7.698-3.475 7.34-5.972-.416-2.906-2.895-3.157-6.122-.618Zm-24.368 9.429c-11.6 5.045-5.5 23.482 6.993 21.138 10.114-1.897 12.651-16.982 3.522-20.937-4.602-1.993-6.319-2.026-10.515-.201Z" fill-rule="evenodd" style="fill: rgb(177, 178, 181); fill-opacity: 1;" class="fills" data-testid="svg-path"/></g><path d="M208 263c35.724 23.816 53.23 34.309 55 37 .608.925-6 3-6 3l-48-32-1-8ZM367.083 277.048c-20.208 45.353-29.051 67.547-31.412 69.831-.811.785-2.903-7.446-2.903-7.446l27.152-60.936 7.163-1.449Z" style="fill: rgb(177, 178, 181); fill-opacity: 1;" class="fills" data-testid="Path"/><path d="M401.984 169c-24.193 74.03-34.753 110.272-37.613 113.984-.983 1.276-3.634-12.224-3.634-12.224L396 163l5.984 6Z" style="fill: rgb(177, 178, 181); fill-opacity: 1;" class="fills" data-testid="Path"/><path d="M524.686 155.196c-86.904 6.542-128.697 11.26-134.019 9.644-1.829-.556 9.886-10.09 9.886-10.09l126.528-9.466-2.395 9.912ZM204.012 261.116c-56.451 7.329-83.487 11.917-87.087 11-1.238-.315 5.758-7.158 5.758-7.158l82.193-10.631-.864 6.789ZM276.917 338.588c-12.876 47.496-18.092 70.534-20.133 73.191-.701.912-4.337-6.572-4.337-6.572l18.783-69.145 5.687 2.526Z" style="fill: rgb(177, 178, 181); fill-opacity: 1;" class="fills" data-testid="Path"/><path d="M252.348 405.797c-107.798-4.431-159.814-4.579-166.19-7.395C83.967 397.434 97 389 97 389l157 8-1.652 8.797ZM432.902 346.428c-111.346 41.638-164.117 63.789-171.93 63.61-2.685-.061 6.469-14.376 6.469-14.376l162.91-59.044 2.551 9.81ZM349 412c5.173 52.728 3.266 68.763 5 72 .596 1.112 8-1 8-1l-5.195-70.311L349 412Z" style="fill: rgb(177, 178, 181); fill-opacity: 1;" class="fills" data-testid="Path"/><path d="M355 475c-41.008 37.498-37.179 31.047-39 35-.626 1.358 4 6 4 6l43-33-8-8Z" style="fill: rgb(177, 178, 181); fill-opacity: 1;" class="fills" data-testid="Path"/></g></g></svg>