<svg width="203" height="203" viewBox="0 0 203 203" fill="none" xmlns="http://www.w3.org/2000/svg">
<rect x="2" y="1" width="200" height="200" rx="100" fill="#252525"/>
<path d="M101.7 49.4448L113.433 85.5527H151.399L120.683 107.869L132.416 143.977L101.7 121.661L70.9852 143.977L82.7174 107.869L52.0021 85.5527H89.9683L101.7 49.4448Z" fill="#FFB800"/>
<path d="M71.7277 58.8951L102.049 81.7437L133.149 59.9672L120.788 95.8649L151.109 118.714L113.149 118.051L100.788 153.949L89.6883 117.641L51.7279 116.979L82.828 95.2023L71.7277 58.8951Z" fill="#FF9900"/>
<path fill-rule="evenodd" clip-rule="evenodd" d="M156.435 148.936C157.627 147.553 158.776 146.115 159.878 144.622C160.981 143.129 162.018 141.608 162.99 140.062L155.617 135.427C154.76 136.788 153.846 138.13 152.873 139.447C151.9 140.765 150.887 142.033 149.837 143.251L156.435 148.936ZM139.726 163.218L135.143 155.812C123.072 163.283 108.839 166.482 94.8498 165.033L93.9524 173.696C109.838 175.341 126.002 171.713 139.726 163.218ZM62.9385 162.99L67.5735 155.616C66.2117 154.76 64.8705 153.846 63.553 152.873C62.2355 151.9 60.9674 150.887 59.7489 149.837L54.0638 156.435C55.4472 157.627 56.8856 158.776 58.3784 159.878C59.8713 160.981 61.3925 162.018 62.9385 162.99ZM39.7825 139.726L47.188 135.143C39.7169 123.072 36.5183 108.839 37.9674 94.8497L29.3044 93.9523C27.6588 109.838 31.2876 126.002 39.7825 139.726ZM40.0102 62.9384C40.982 61.3924 42.019 59.8712 43.1217 58.3784C44.2245 56.8855 45.3736 55.4471 46.5656 54.0637L53.1634 59.7488C52.1135 60.9673 51.1003 62.2355 50.1271 63.553C49.154 64.8705 48.2397 66.2116 47.3837 67.5734L40.0102 62.9384ZM63.2738 39.7824L67.8575 47.1879C79.9281 39.7169 94.1614 36.5182 108.15 37.9673L109.048 29.3044C93.1621 27.6587 76.9985 31.2875 63.2738 39.7824ZM140.062 40.0101L135.427 47.3836C136.788 48.2396 138.13 49.1539 139.447 50.1271C140.765 51.1003 142.033 52.1134 143.251 53.1634L148.936 46.5655C147.553 45.3735 146.115 44.2244 144.622 43.1217C143.129 42.0189 141.608 40.9819 140.062 40.0101ZM163.218 63.2738L155.812 67.8574C163.283 79.9281 166.482 94.1613 165.033 108.15L173.696 109.048C175.341 93.1621 171.713 76.9985 163.218 63.2738Z" fill="#FF9900"/>
</svg>
